<?xml version="1.0" ?><svg id="burger" style="enable-background:new 0 0 32 32;" version="1.1" viewBox="0 0 32 32" xml:space="preserve" xmlns="http://www.w3.org/2000/svg" xmlns:xlink="http://www.w3.org/1999/xlink"><path d="M27,20.8v-1.2c0-0.1,0-0.2,0-0.3h0c0.6,0,1-0.4,1-1c0-4.6-3.7-8.3-8.3-8.3H17V7.7l5.3-1.8C22.7,5.8,23,5.4,23,5  s-0.3-0.8-0.7-0.9l-6-2c-0.1,0-0.2,0-0.3,0c0,0,0,0,0,0c0,0,0,0,0,0c-0.1,0-0.2,0-0.3,0.1c0,0,0,0,0,0c-0.1,0-0.1,0.1-0.2,0.1  c0,0-0.1,0.1-0.1,0.1c0,0,0,0-0.1,0c-0.1,0.1-0.1,0.2-0.2,0.3c0,0,0,0,0,0.1C15,2.8,15,2.9,15,3v4v3h-2.7c-2.2,0-4.3,0.9-5.9,2.4  C4.9,14,4,16.1,4,18.3c0,0.5,0.4,1,1,1c0,0.1,0,0.2,0,0.3v1.3c0,0,0,0,0,0C4.3,21.4,4,22.2,4,23c0,1.3,0.8,2.4,2,2.8v0.7  C6,28.4,7.6,30,9.5,30h13c1.9,0,3.5-1.6,3.5-3.5v-0.7c0.4-0.1,0.8-0.4,1.1-0.7c0.6-0.6,0.9-1.3,0.9-2.1C28,22.1,27.6,21.3,27,20.8z   M17,5.6V4.4L18.8,5L17,5.6z M25,19.6v0.9l-0.3,0.1c-0.5,0.2-1,0.2-1.5,0l-0.9-0.4c-0.2-0.1-0.5-0.1-0.8,0l-0.9,0.4  c-0.5,0.2-1,0.2-1.5,0l-0.9-0.4c-0.2-0.1-0.5-0.1-0.8,0l-0.9,0.4c-0.5,0.2-1,0.2-1.5,0l-0.9-0.4c-0.2-0.1-0.5-0.1-0.8,0l-0.9,0.4  c-0.5,0.2-1,0.2-1.5,0l-0.9-0.4c-0.2-0.1-0.5-0.1-0.8,0l-0.9,0.4c-0.5,0.2-1,0.2-1.5,0l-0.3-0.1v-0.9c0-0.1,0-0.2,0-0.3H25  C25,19.4,25,19.5,25,19.6z M7.8,13.8C9,12.7,10.6,12,12.3,12h7.4c3.1,0,5.8,2.3,6.2,5.3h-0.1H6.1h0C6.3,16,6.9,14.8,7.8,13.8z   M24,26.5c0,0.8-0.7,1.5-1.5,1.5h-13C8.7,28,8,27.3,8,26.5V26h16V26.5z M25.7,23.7C25.5,23.9,25.3,24,25,24H7c-0.6,0-1-0.4-1-1  c0-0.2,0.1-0.4,0.2-0.6l0.3,0.1c0.2,0.1,0.5,0.2,0.7,0.2c0.1,0,0.1,0,0.2,0c0.2,0,0.4,0.1,0.5,0.1c0,0,0,0,0,0c0.1,0,0.3,0,0.4,0  c0.1,0,0.3,0,0.4,0c0.3,0,0.5-0.1,0.7-0.2l0.5-0.2l0.5,0.2c1,0.4,2,0.4,3,0l0.5-0.2l0.5,0.2c1,0.4,2.1,0.4,3,0l0.5-0.2l0.5,0.2  c1,0.4,2,0.4,3,0l0.5-0.2l0.5,0.2c1,0.4,2,0.4,3,0l0.3-0.1c0.2,0.2,0.2,0.4,0.2,0.7C26,23.3,25.9,23.5,25.7,23.7z"/></svg>